<?xml version="1.0" encoding="utf-8"?>
<!-- Generator: Adobe Illustrator 24.3.0, SVG Export Plug-In . SVG Version: 6.00 Build 0)  -->
<svg version="1.1" xmlns="http://www.w3.org/2000/svg" xmlns:xlink="http://www.w3.org/1999/xlink" x="0px" y="0px"
	 viewBox="0 0 1366 768" style="enable-background:new 0 0 1366 768;" xml:space="preserve">
<style type="text/css">
	.st0{fill:#59FFFF;}
	.st1{fill:#FFFFFF;stroke:#000000;stroke-width:3.4844;stroke-linecap:round;stroke-miterlimit:10;}
	.st2{fill:#FFFFFF;stroke:#000000;stroke-width:2.3229;stroke-linecap:round;stroke-miterlimit:10;}
	.st3{fill:none;stroke:#000000;stroke-width:2.3229;stroke-linecap:round;stroke-miterlimit:10;}
</style>
<g id="box">
	<g>
		<rect x="524.6" y="126.8" class="st0" width="399" height="399"/>
		<path d="M923.1,127.3v398h-398v-398H923.1 M924.1,126.3h-400v400h400V126.3L924.1,126.3z"/>
	</g>
</g>
<g id="cat-body">
	<path class="st1" d="M829.6,367.2c28.7-18.3,47.2-46.9,47.2-79.2c0-13.5-3.3-26.4-9.1-38.1l0.7,0.4c0,0,16.8-74.4-0.7-82.9
		c-4.6-2.2-39.1,17.3-60.9,30c-15.4-5.9-32.5-9.2-50.5-9.2c-18.1,0-35.2,3.3-50.6,9.2c-21.7-12.8-56.3-32.3-60.9-30
		c-17.6,8.6-0.7,82.9-0.7,82.9l0.8-0.4c-5.9,11.8-9.2,24.7-9.2,38.2c0,32.3,18.5,61,47.2,79.2c-35.1,26.2-58.2,70.8-58.2,121.3
		c0,80.7,52.7,82.8,125.3,82.8s137.8-2.1,137.8-82.8C887.8,438,864.7,393.5,829.6,367.2z"/>
	<path class="st2" d="M868.9,511.5c0-65.9-50.5-110-112.7-110s-112.7,44.1-112.7,110s44.2,59.8,106.4,59.8S868.9,577.3,868.9,511.5z
		"/>
</g>
<g id="cat-tail">
	<path class="st1" d="M624.7,488.5c0-0.1,0-0.2,0-0.3c-14.2-10.4-30.3-26-28.2-42.2c3.7-28.4,27-44.6,36.6-63.1
		c12.7-24.5,0.5-54.1-33.1-67c-33.7-12.9-92-13.8-60.5,7.9c20.5,14.2,52.6,8.1,57.8,35.4c5.3,27.3-28.9,52.1-37.9,83.6
		s32.6,82.2,71.5,90.4c0,0,0,0,0,0C626.9,519.1,624.7,504.1,624.7,488.5z"/>
</g>
<g id="cat-ears">
	<g>
		<path class="st2" d="M690.9,204.1c-14.7-8.4-31.2-17.1-33.9-15.8c-8.7,4.2-6,30.3-3.2,47C663.3,222.7,675.9,212.1,690.9,204.1z"/>
		<path class="st2" d="M858.6,235.2c2.7-16.7,5.4-42.7-3.2-46.9c-2.7-1.3-19.1,7.4-33.8,15.8C836.5,212,849.2,222.7,858.6,235.2z"/>
	</g>
</g>
<g id="cat-face">
	<g id="eyes">
		<circle cx="703" cy="261.3" r="8.5"/>
		<circle cx="809.5" cy="261.3" r="8.5"/>
	</g>
	<g id="nose">
		<path d="M763.2,294.7c0,2.2-3.1,5.7-7,5.7s-7-3.5-7-5.7c0-2.2,3.1-2.9,7-2.9S763.2,292.4,763.2,294.7z"/>
	</g>
	<path id="mouth" d="M756.2,308.3c0,0-1,5-6.2,4.5c0,0,0.9,2.2,6.2,2.2s6.2-2.2,6.2-2.2C757.3,313.4,756.2,308.3,756.2,308.3z"/>
	<g id="whiskers">
		<g>
			<g>
				<path d="M743,295.5c-5.8-2-11.8-3.4-17.8-4.5c-6-1.1-12-2-18.1-2.3c-6.1-0.4-12.2-0.5-18.2-0.2c-3.1,0.1-6.1,0.4-9.1,0.7
					c-1.5,0.1-3,0.4-4.6,0.6c-1.5,0.2-3,0.4-4.6,0.6c1.5-0.4,3-0.8,4.5-1.2c1.5-0.4,3-0.8,4.5-1.1l4.6-0.8l1.1-0.2l1.2-0.1l2.3-0.2
					c1.5-0.1,3.1-0.4,4.6-0.4l4.6-0.2c0.8-0.1,1.5,0,2.3,0l2.3,0.1c1.5,0,3.1,0.1,4.6,0.2c6.2,0.4,12.3,1.4,18.3,2.9
					C731.7,290.7,737.6,292.7,743,295.5z"/>
			</g>
			<g>
				<path d="M743,298.6c-7.8,0.6-15.6,1-23.3,1.5c-7.8,0.5-15.5,1-23.2,1.7c-7.7,0.7-15.4,1.5-23.1,2.7c-3.8,0.6-7.6,1.3-11.3,2.3
					c-3.7,1-7.4,2.2-10.8,4.1c3-2.6,6.6-4.3,10.3-5.8c3.7-1.4,7.5-2.5,11.3-3.4c3.8-0.9,7.7-1.5,11.6-2.1c3.9-0.5,7.8-1,11.7-1.3
					c3.9-0.3,7.8-0.6,11.7-0.7c3.9-0.1,7.8-0.2,11.7-0.2C727.4,297.4,735.3,297.7,743,298.6z"/>
			</g>
			<g>
				<path d="M743,303c-3.4,1-6.7,1.9-10.1,2.7c-3.3,0.9-6.7,1.8-10,2.8c-3.3,1-6.6,2-9.8,3.2c-3.2,1.2-6.4,2.5-9.5,4.2
					c2.5-2.5,5.6-4.3,8.8-5.9c3.2-1.6,6.5-2.7,9.9-3.7c1.7-0.5,3.4-0.9,5.1-1.3c1.7-0.3,3.4-0.7,5.2-1C736,303.4,739.5,303,743,303z
					"/>
			</g>
		</g>
		<g>
			<g>
				<path d="M775.1,295.5c5.5-2.8,11.4-4.8,17.4-6.3c6-1.5,12.1-2.5,18.3-2.9c1.5-0.1,3.1-0.2,4.6-0.2l2.3-0.1c0.8,0,1.5,0,2.3,0
					l4.6,0.2c1.5,0,3.1,0.3,4.6,0.4l2.3,0.2l1.2,0.1l1.1,0.2l4.6,0.8c1.5,0.3,3,0.7,4.5,1.1c1.5,0.4,3,0.8,4.5,1.2
					c-1.5-0.2-3.1-0.4-4.6-0.6c-1.5-0.2-3-0.5-4.6-0.6c-3-0.3-6.1-0.6-9.1-0.7c-6.1-0.4-12.2-0.3-18.2,0.2
					c-6.1,0.3-12.1,1.2-18.1,2.3C786.9,292.1,781,293.6,775.1,295.5z"/>
			</g>
			<g>
				<path d="M775.1,298.6c7.8-0.9,15.6-1.2,23.4-1.2c3.9,0,7.8,0.1,11.7,0.2c3.9,0.2,7.8,0.4,11.7,0.7c3.9,0.4,7.8,0.8,11.7,1.3
					c3.9,0.6,7.8,1.2,11.6,2.1c3.8,0.9,7.6,2,11.3,3.4c3.7,1.4,7.3,3.2,10.3,5.8c-3.4-2-7.1-3.2-10.8-4.1c-3.7-1-7.5-1.7-11.3-2.3
					c-7.6-1.2-15.3-2-23.1-2.7c-7.7-0.7-15.5-1.2-23.2-1.7C790.7,299.6,782.9,299.1,775.1,298.6z"/>
			</g>
			<g>
				<path d="M775.1,303c3.5,0,7,0.4,10.5,1c1.7,0.3,3.4,0.6,5.2,1c1.7,0.4,3.4,0.8,5.1,1.3c3.4,1,6.7,2.2,9.9,3.7
					c3.2,1.5,6.3,3.4,8.8,5.9c-3.1-1.7-6.3-3-9.5-4.2c-3.2-1.2-6.5-2.2-9.8-3.2c-3.3-1-6.6-1.9-10-2.8
					C781.9,304.9,778.5,304,775.1,303z"/>
			</g>
		</g>
	</g>
	<path id="chin" class="st3" d="M784.9,345.6c-9.6,8.1-24.7,1.9-28.7,1.9s-19.1,6.2-28.7-1.9"/>
</g>
</svg>
